<svg xmlns="http://www.w3.org/2000/svg" viewBox="0 0 1673 822">
<!-- Geist 600; 128.0 stem; jog travel 0.5 stem; perp 1.0; dot top -710.0 -->
<path fill="#000000" d="M972.4 772Q892.6 772 833.9 737.6Q775.2 703.2 743.1 640.3Q711 577.4 711 493Q711 408.6 743.1 346.2Q775.2 283.8 833.3 248.9Q891.4 214 970 214Q1046.2 214 1103.5 248.1Q1160.7 282.2 1192 346.2Q1223.2 410.2 1223.2 500V528.6H843.8Q847.6 599.2 882.1 634.4Q916.6 669.6 974 669.6Q1016.8 669.6 1045.1 650.5Q1073.4 631.4 1084.8 596.2L1215.7 604.4Q1194.2 681.8 1129.5 726.9Q1064.8 772 972.4 772ZM542.4 760Q462.9 760 425.4 723.2Q387.9 686.4 387.9 607.2V325.2H304.2V226H387.9V50H515.8V226H656.8V325.2H515.8V594.8Q515.8 632.4 532 646.6Q548.2 660.8 581.6 660.8H656.8V760ZM1323.2 760V226H1442.8L1446.2 330.1Q1459.1 284.8 1482.5 260.5Q1515.8 226 1573.4 226H1623V335.6H1573.2Q1532 335.6 1505.1 347.7Q1478.2 359.8 1464.8 385.3Q1451.2 410.8 1451.2 452.4V760ZM50 760V551.7L50.2 547.3L50.7 543.2L51.5 539.5L52.6 536L54.1 532.9L55.9 530.2L58 527.7L60.4 525.6L63.2 523.8L66.3 522.3L69.8 521.2L73.5 520.3L77.6 519.9L82 519.7L86.4 519.5L90.5 519L94.2 518.2L97.7 517.1L100.8 515.6L103.5 513.8L106 511.7L108.1 509.2L109.9 506.5L111.4 503.4L112.5 499.9L113.3 496.2L113.8 492.1L114 487.7V226H242V487.7L241.8 492.1L241.4 496.2L240.5 499.9L239.4 503.4L237.9 506.5L236.1 509.2L234 511.7L231.5 513.8L228.8 515.6L225.7 517.1L222.2 518.2L218.5 519L214.4 519.5L210 519.7L205.6 519.9L201.5 520.3L197.8 521.2L194.3 522.3L191.2 523.8L188.5 525.6L186 527.7L183.9 530.2L182.1 532.9L180.6 536L179.5 539.5L178.6 543.2L178.2 547.3L178 551.7V760ZM843.8 442.6H1090.4Q1086.4 377.6 1053.7 346.2Q1021 314.8 970 314.8Q918.6 314.8 885.1 347.7Q851.6 380.6 843.8 442.6Z"/>
<path fill="#000000" d="M111.6 116.4C111.6 153.1 141.3 182.8 178 182.8C214.7 182.8 244.4 153.1 244.4 116.4C244.4 79.7 214.7 50 178 50C141.3 50 111.6 79.7 111.6 116.4Z"/>
</svg>
